# xmcd CD database file
#
# Track frame offsets:
#	150
#	17930
#	33202
#	49177
#	70647
#	95795
#	120747
#	134835
#	154725
#	168147
#
# Disc length: 2525 seconds
#
# Revision: 1
# Processed by: cddbd v1.5.1PL0 Copyright (c) Steve Scherf et al.
# Submitted via: CDex 1.51
#
DISCID=8509db0a
DTITLE=Various Artist - Southern Gospel Greats Of The 80's
DYEAR=1999
DGENRE=Gospel
TTITLE0=Squire Parsons/Sweet Beulah Land
TTITLE1=Cathedrals/Step Into The Water
TTITLE2=Florida Boys/When He Was On The Cross
TTITLE3=Spencers/Coming Soon
TTITLE4=Cathedrals/ We Shall See Jesus
TTITLE5=Singing Americans/I Bowed On My Knees (And Cried Holy)
TTITLE6=Gold City/John Saw
TTITLE7=Cathedrals/Champion Of Love
TTITLE8=Hinsons/Mercy Built A Bridge
TTITLE9=Gold City/Midnight Cry
EXTD=Jonathan Hutcherson YEAR: 1999
EXTT0=
EXTT1=
EXTT2=
EXTT3=
EXTT4=
EXTT5=
EXTT6=
EXTT7=
EXTT8=
EXTT9=
PLAYORDER=
